# xmcd CD database file
#
# Track frame offsets:
#	150
#	19363
#	39995
#	74685
#	101550
#	139490
#	179980
#	227575
#	263647
#	295322
#	317940
#
# Disc length: 4640 seconds
#
# Revision: 0
# Processed by: cddbd v1.5.2PL0 Copyright (c) Steve Scherf et al.
# Submitted via: CDex 1.78
#
DISCID=ae121e0b
DTITLE=Jimmy Smith - Lou Donaldson Quartet - Complete Studio Recordings CD1
DYEAR=1957
DGENRE=Jazz
TTITLE0=I'M GETTING SENTIMENTAL OVER YOU 
TTITLE1=SUMMERTIME 
TTITLE2=PLUM NELLIE 
TTITLE3=PLUM NELLIE [alt tk] 
TTITLE4=BILLIE'S BOUNCE 
TTITLE5=YARDBIRD SUITE 
TTITLE6=ALL DAY LONG 
TTITLE7=SOFT WINDS 
TTITLE8=HOLLERIN' AND SCREAMIN' 
TTITLE9=STAR EYES  
TTITLE10=DARN THAT DREAM 
EXTD=YEAR: 1957
EXTT0=
EXTT1=
EXTT2=
EXTT3=
EXTT4=
EXTT5=
EXTT6=
EXTT7=
EXTT8=
EXTT9=
EXTT10=
PLAYORDER=
